<mxfile host="app.diagrams.net" modified="2022-09-14T08:19:18.878Z" agent="5.0 (Macintosh; Intel Mac OS X 10_15_7) AppleWebKit/537.36 (KHTML, like Gecko) Chrome/105.0.0.0 Safari/537.36" etag="O2RZXszeWsyNsXlc0IwL" version="20.3.0" type="github">
  <diagram id="Z2ABD7AYeOv4vEqfzOP3" name="第 1 页">
    <mxGraphModel dx="1028" dy="798" grid="1" gridSize="10" guides="1" tooltips="1" connect="1" arrows="1" fold="1" page="1" pageScale="1" pageWidth="1169" pageHeight="1654" math="0" shadow="0">
      <root>
        <mxCell id="0" />
        <mxCell id="1" parent="0" />
        <mxCell id="sLuO-1ErljDyHVmWhTU6-8" style="edgeStyle=none;rounded=0;orthogonalLoop=1;jettySize=auto;html=1;entryX=0.5;entryY=0;entryDx=0;entryDy=0;strokeWidth=3;sketch=1;" edge="1" parent="1" source="sLuO-1ErljDyHVmWhTU6-1" target="sLuO-1ErljDyHVmWhTU6-2">
          <mxGeometry relative="1" as="geometry" />
        </mxCell>
        <mxCell id="sLuO-1ErljDyHVmWhTU6-9" style="edgeStyle=none;rounded=0;orthogonalLoop=1;jettySize=auto;html=1;entryX=0.5;entryY=0;entryDx=0;entryDy=0;strokeWidth=3;sketch=1;" edge="1" parent="1" source="sLuO-1ErljDyHVmWhTU6-1" target="sLuO-1ErljDyHVmWhTU6-3">
          <mxGeometry relative="1" as="geometry" />
        </mxCell>
        <mxCell id="sLuO-1ErljDyHVmWhTU6-1" value="&lt;b&gt;&lt;font style=&quot;font-size: 18px;&quot;&gt;？&lt;/font&gt;&lt;/b&gt;" style="whiteSpace=wrap;html=1;aspect=fixed;strokeWidth=2;shadow=1;sketch=1;" vertex="1" parent="1">
          <mxGeometry x="350" y="160" width="60" height="60" as="geometry" />
        </mxCell>
        <mxCell id="sLuO-1ErljDyHVmWhTU6-6" style="rounded=0;orthogonalLoop=1;jettySize=auto;html=1;entryX=0.5;entryY=0;entryDx=0;entryDy=0;strokeWidth=3;sketch=1;" edge="1" parent="1" source="sLuO-1ErljDyHVmWhTU6-2" target="sLuO-1ErljDyHVmWhTU6-4">
          <mxGeometry relative="1" as="geometry" />
        </mxCell>
        <mxCell id="sLuO-1ErljDyHVmWhTU6-7" style="edgeStyle=none;rounded=0;orthogonalLoop=1;jettySize=auto;html=1;entryX=0.5;entryY=0;entryDx=0;entryDy=0;strokeWidth=3;sketch=1;" edge="1" parent="1" source="sLuO-1ErljDyHVmWhTU6-2" target="sLuO-1ErljDyHVmWhTU6-5">
          <mxGeometry relative="1" as="geometry" />
        </mxCell>
        <mxCell id="sLuO-1ErljDyHVmWhTU6-2" value="&lt;b&gt;&lt;font style=&quot;font-size: 18px;&quot;&gt;?&lt;/font&gt;&lt;/b&gt;" style="whiteSpace=wrap;html=1;aspect=fixed;strokeWidth=2;shadow=1;sketch=1;" vertex="1" parent="1">
          <mxGeometry x="250" y="280" width="60" height="60" as="geometry" />
        </mxCell>
        <mxCell id="sLuO-1ErljDyHVmWhTU6-3" value="&lt;font size=&quot;1&quot; style=&quot;&quot;&gt;&lt;b style=&quot;font-size: 18px;&quot;&gt;？&lt;/b&gt;&lt;/font&gt;" style="whiteSpace=wrap;html=1;aspect=fixed;strokeWidth=2;shadow=1;sketch=1;" vertex="1" parent="1">
          <mxGeometry x="450" y="280" width="60" height="60" as="geometry" />
        </mxCell>
        <mxCell id="sLuO-1ErljDyHVmWhTU6-4" value="&lt;b&gt;&lt;font style=&quot;font-size: 18px;&quot;&gt;K 4&lt;/font&gt;&lt;/b&gt;" style="whiteSpace=wrap;html=1;aspect=fixed;strokeWidth=2;shadow=1;sketch=1;" vertex="1" parent="1">
          <mxGeometry x="170" y="400" width="60" height="60" as="geometry" />
        </mxCell>
        <mxCell id="sLuO-1ErljDyHVmWhTU6-5" value="&lt;b&gt;&lt;font style=&quot;font-size: 18px;&quot;&gt;K 5&lt;/font&gt;&lt;/b&gt;" style="whiteSpace=wrap;html=1;aspect=fixed;strokeWidth=2;shadow=1;sketch=1;" vertex="1" parent="1">
          <mxGeometry x="320" y="400" width="60" height="60" as="geometry" />
        </mxCell>
        <mxCell id="sLuO-1ErljDyHVmWhTU6-14" value="" style="group" vertex="1" connectable="0" parent="1">
          <mxGeometry x="410" y="530" width="300" height="40" as="geometry" />
        </mxCell>
        <mxCell id="sLuO-1ErljDyHVmWhTU6-10" value="&lt;b&gt;&lt;font style=&quot;font-size: 18px;&quot;&gt;V1&lt;/font&gt;&lt;/b&gt;" style="rounded=0;whiteSpace=wrap;html=1;shadow=1;sketch=1;strokeWidth=2;fillColor=#dae8fc;strokeColor=#6c8ebf;" vertex="1" parent="sLuO-1ErljDyHVmWhTU6-14">
          <mxGeometry width="100" height="40" as="geometry" />
        </mxCell>
        <mxCell id="sLuO-1ErljDyHVmWhTU6-11" value="&lt;b&gt;&lt;font style=&quot;font-size: 18px;&quot;&gt;V2&lt;/font&gt;&lt;/b&gt;&lt;span style=&quot;color: rgba(0, 0, 0, 0); font-family: monospace; font-size: 0px; text-align: start;&quot;&gt;%3CmxGraphModel%3E%3Croot%3E%3CmxCell%20id%3D%220%22%2F%3E%3CmxCell%20id%3D%221%22%20parent%3D%220%22%2F%3E%3CmxCell%20id%3D%222%22%20value%3D%22%26lt%3Bb%26gt%3B%26lt%3Bfont%20style%3D%26quot%3Bfont-size%3A%2018px%3B%26quot%3B%26gt%3BV1%26lt%3B%2Ffont%26gt%3B%26lt%3B%2Fb%26gt%3B%22%20style%3D%22rounded%3D0%3BwhiteSpace%3Dwrap%3Bhtml%3D1%3Bshadow%3D1%3Bsketch%3D1%3BstrokeWidth%3D2%3B%22%20vertex%3D%221%22%20parent%3D%221%22%3E%3CmxGeometry%20x%3D%22540%22%20y%3D%22470%22%20width%3D%22100%22%20height%3D%2240%22%20as%3D%22geometry%22%2F%3E%3C%2FmxCell%3E%3C%2Froot%3E%3C%2FmxGraphModel%3E&lt;/span&gt;" style="rounded=0;whiteSpace=wrap;html=1;shadow=1;sketch=1;strokeWidth=2;" vertex="1" parent="sLuO-1ErljDyHVmWhTU6-14">
          <mxGeometry x="100" width="100" height="40" as="geometry" />
        </mxCell>
        <mxCell id="sLuO-1ErljDyHVmWhTU6-12" value="&lt;b&gt;&lt;font style=&quot;font-size: 18px;&quot;&gt;V5&lt;/font&gt;&lt;/b&gt;&lt;span style=&quot;color: rgba(0, 0, 0, 0); font-family: monospace; font-size: 0px; text-align: start;&quot;&gt;%3CmxGraphModel%3E%3Croot%3E%3CmxCell%20id%3D%220%22%2F%3E%3CmxCell%20id%3D%221%22%20parent%3D%220%22%2F%3E%3CmxCell%20id%3D%222%22%20value%3D%22%26lt%3Bb%26gt%3B%26lt%3Bfont%20style%3D%26quot%3Bfont-size%3A%2018px%3B%26quot%3B%26gt%3BV1%26lt%3B%2Ffont%26gt%3B%26lt%3B%2Fb%26gt%3B%22%20style%3D%22rounded%3D0%3BwhiteSpace%3Dwrap%3Bhtml%3D1%3Bshadow%3D1%3Bsketch%3D1%3BstrokeWidth%3D2%3B%22%20vertex%3D%221%22%20parent%3D%221%22%3E%3CmxGeometry%20x%3D%22540%22%20y%3D%22470%22%20width%3D%22100%22%20height%3D%2240%22%20as%3D%22geometry%22%2F%3E%3C%2FmxCell%3E%3C%2Froot%3E%3C%2FmxGraphModel%3E&lt;/span&gt;" style="rounded=0;whiteSpace=wrap;html=1;shadow=1;sketch=1;strokeWidth=2;" vertex="1" parent="sLuO-1ErljDyHVmWhTU6-14">
          <mxGeometry x="200" width="100" height="40" as="geometry" />
        </mxCell>
        <mxCell id="sLuO-1ErljDyHVmWhTU6-23" value="" style="group" vertex="1" connectable="0" parent="1">
          <mxGeometry x="410" y="570" width="300" height="40" as="geometry" />
        </mxCell>
        <mxCell id="sLuO-1ErljDyHVmWhTU6-24" value="&lt;b&gt;&lt;font style=&quot;font-size: 18px;&quot;&gt;V4&lt;/font&gt;&lt;/b&gt;" style="rounded=0;whiteSpace=wrap;html=1;shadow=1;sketch=1;strokeWidth=2;" vertex="1" parent="sLuO-1ErljDyHVmWhTU6-23">
          <mxGeometry width="100" height="40" as="geometry" />
        </mxCell>
        <mxCell id="sLuO-1ErljDyHVmWhTU6-25" value="&lt;b&gt;&lt;font style=&quot;font-size: 18px;&quot;&gt;V7&lt;/font&gt;&lt;/b&gt;&lt;span style=&quot;color: rgba(0, 0, 0, 0); font-family: monospace; font-size: 0px; text-align: start;&quot;&gt;%3CmxGraphModel%3E%3Croot%3E%3CmxCell%20id%3D%220%22%2F%3E%3CmxCell%20id%3D%221%22%20parent%3D%220%22%2F%3E%3CmxCell%20id%3D%222%22%20value%3D%22%26lt%3Bb%26gt%3B%26lt%3Bfont%20style%3D%26quot%3Bfont-size%3A%2018px%3B%26quot%3B%26gt%3BV1%26lt%3B%2Ffont%26gt%3B%26lt%3B%2Fb%26gt%3B%22%20style%3D%22rounded%3D0%3BwhiteSpace%3Dwrap%3Bhtml%3D1%3Bshadow%3D1%3Bsketch%3D1%3BstrokeWidth%3D2%3B%22%20vertex%3D%221%22%20parent%3D%221%22%3E%3CmxGeometry%20x%3D%22540%22%20y%3D%22470%22%20width%3D%22100%22%20height%3D%2240%22%20as%3D%22geometry%22%2F%3E%3C%2FmxCell%3E%3C%2Froot%3E%3C%2FmxGraphModel%3&lt;/span&gt;" style="rounded=0;whiteSpace=wrap;html=1;shadow=1;sketch=1;strokeWidth=2;fillColor=#f5f5f5;fontColor=#333333;strokeColor=#666666;" vertex="1" parent="sLuO-1ErljDyHVmWhTU6-23">
          <mxGeometry x="100" width="100" height="40" as="geometry" />
        </mxCell>
        <mxCell id="sLuO-1ErljDyHVmWhTU6-26" value="&lt;span style=&quot;font-size: 18px;&quot;&gt;&lt;b&gt;V8&lt;/b&gt;&lt;/span&gt;" style="rounded=0;whiteSpace=wrap;html=1;shadow=1;sketch=1;strokeWidth=2;" vertex="1" parent="sLuO-1ErljDyHVmWhTU6-23">
          <mxGeometry x="200" width="100" height="40" as="geometry" />
        </mxCell>
        <mxCell id="sLuO-1ErljDyHVmWhTU6-27" value="" style="curved=1;endArrow=classic;html=1;rounded=0;sketch=1;strokeWidth=3;fontSize=18;dashed=1;" edge="1" parent="1">
          <mxGeometry width="50" height="50" relative="1" as="geometry">
            <mxPoint x="380" y="430" as="sourcePoint" />
            <mxPoint x="660" y="520" as="targetPoint" />
            <Array as="points">
              <mxPoint x="440" y="430" />
            </Array>
          </mxGeometry>
        </mxCell>
        <mxCell id="sLuO-1ErljDyHVmWhTU6-28" value="" style="curved=1;endArrow=classic;html=1;rounded=0;sketch=1;strokeWidth=3;fontSize=18;entryX=0;entryY=0.5;entryDx=0;entryDy=0;exitX=0.5;exitY=1;exitDx=0;exitDy=0;dashed=1;" edge="1" parent="1" source="sLuO-1ErljDyHVmWhTU6-4" target="sLuO-1ErljDyHVmWhTU6-24">
          <mxGeometry width="50" height="50" relative="1" as="geometry">
            <mxPoint x="210" y="520" as="sourcePoint" />
            <mxPoint x="260" y="470" as="targetPoint" />
            <Array as="points">
              <mxPoint x="240" y="550" />
            </Array>
          </mxGeometry>
        </mxCell>
      </root>
    </mxGraphModel>
  </diagram>
</mxfile>
